<svg width="33" height="21" viewBox="0 0 33 21" fill="none" xmlns="http://www.w3.org/2000/svg">
<path d="M1.8047 16.7111C1.66073 16.4223 1.46878 15.9609 1.35022 15.6192C0.658622 13.6185 0.62757 11.5473 1.20908 9.56073C1.84987 7.38038 3.07498 5.7143 4.6586 4.86189C6.64871 3.79461 8.84772 4.00243 10.756 5.4149C11.967 6.2814 12.8251 7.6199 13.4772 9.51494C13.5591 9.75798 13.6325 10.0151 13.7058 10.237L1.8047 16.7111ZM5.77928 8.07781C4.36503 8.83512 3.63673 10.4906 3.78917 12.4279L9.77362 9.21201C8.74327 7.70444 7.40524 7.20426 5.77928 8.07781V8.07781ZM10.5188 15.0732C10.516 15.0732 10.516 15.0768 10.516 15.0768L10.3918 14.9711C10.0333 15.6932 9.47721 16.2814 8.77432 16.6618C7.43629 17.3874 6.19706 17.2007 5.30504 16.225L5.22317 16.38C5.22317 16.38 5.22317 16.3765 5.22035 16.3765L3.70165 19.212C4.07992 19.5396 4.48359 19.8143 4.90702 20.0362C6.58379 20.9063 8.30008 20.864 9.99097 19.9482C11.2133 19.286 12.173 18.2786 12.8279 17L10.5188 15.0732ZM17.8639 0.691406V16.4505L19.8286 17.4438L18.7136 20.6914L16.5456 19.5642C16.0601 19.3001 15.727 18.8985 15.4786 18.4441C15.2387 17.9827 15.0608 17.3452 15.0608 16.4927V0.691406H17.8639ZM22.9507 12.4385C22.9507 11.0965 23.4278 9.89183 24.1786 9.07464L22.1631 6.27084C20.7969 7.77841 19.9359 9.97989 19.9359 12.4315C19.9331 14.8865 20.794 17.0915 22.1575 18.5991L24.1702 15.7953C23.4221 14.9746 22.9507 13.777 22.9507 12.4385V12.4385ZM26.5301 16.9084C26.1349 16.9084 25.751 16.8238 25.3953 16.6759L24.4327 20.2441C25.0904 20.5188 25.7933 20.6703 26.5272 20.6703C29.7171 20.6738 32.379 17.8489 32.9972 14.0975L30.0389 13.3437C29.703 15.3832 28.2605 16.9119 26.5301 16.9084V16.9084ZM26.5385 4.20673C25.8074 4.20673 25.1045 4.35467 24.4468 4.62589L25.4009 8.19757C25.7594 8.04963 26.1405 7.96862 26.5357 7.96862C28.2689 7.97214 29.7142 9.50789 30.0417 11.5509L33 10.8041C32.3931 7.04576 29.7312 4.21025 26.5385 4.20673V4.20673Z" fill="white"/>
</svg>
